<svg xmlns="http://www.w3.org/2000/svg" class="scene" viewBox="0 0 1040 680" width="1040" height="680" role="img" aria-labelledby="scene-title scene-desc">
            <style><![CDATA[
.scene {
  --crank: 1.2s;
  --wheel: 1s;
  --road: 0.884s;
}

.clouds {
  animation: drift 22s ease-in-out infinite alternate;
}

.birds {
  animation: drift 13s ease-in-out infinite alternate-reverse;
}

.waves {
  animation: drift 6.5s ease-in-out infinite alternate;
}

.ground-scroll {
  animation: slide var(--road) linear infinite;
}

.bike-shadow {
  transform-box: view-box;
  transform-origin: 470px 508px;
  animation: squat calc(var(--crank) / 2) ease-in-out infinite;
}

.upper {
  animation: bob calc(var(--crank) / 2) ease-in-out infinite;
}

.tail {
  transform-box: view-box;
  transform-origin: 310px 314px;
  animation: sway 1.6s ease-in-out infinite;
}

.pouch {
  transform-box: view-box;
  transform-origin: 644px 176px;
  animation: jiggle calc(var(--crank) / 2) ease-in-out infinite;
}

.lid {
  transform-box: view-box;
  transform-origin: 626px 166px;
  animation: blink 4.6s infinite;
}

.chain-top,
.chain-bot {
  stroke-dasharray: 7 5;
}

.chain-top {
  animation: chain-fwd 0.32s linear infinite;
}

.chain-bot {
  animation: chain-back 0.32s linear infinite;
}

.thigh-near,
.shin-near,
.knee-near,
.thigh-far,
.shin-far,
.knee-far {
  animation-duration: var(--crank);
  animation-timing-function: linear;
  animation-iteration-count: infinite;
}

.thigh-near {
  stroke-width: 16;
  animation-name: thigh-near;
}

.shin-near {
  stroke-width: 10;
  animation-name: shin-near;
}

.knee-near {
  animation-name: knee-near;
}

.thigh-far {
  stroke-width: 12;
  animation-name: thigh-far;
}

.shin-far {
  stroke-width: 8;
  animation-name: shin-far;
}

.knee-far {
  animation-name: knee-far;
}

.scene.is-paused,
.scene.is-paused * {
  animation-play-state: paused !important;
}

@media (prefers-reduced-motion: reduce) {
  .scene:not(.force-play),
  .scene:not(.force-play) * {
    animation-play-state: paused !important;
  }
}

@keyframes drift {
  to {
    transform: translateX(-56px);
  }
}

@keyframes slide {
  to {
    transform: translateX(-400px);
  }
}

@keyframes bob {
  0%,
  100% {
    transform: translateY(0);
  }
  50% {
    transform: translateY(3.5px);
  }
}

@keyframes sway {
  0%,
  100% {
    transform: rotate(-3deg);
  }
  50% {
    transform: rotate(4deg);
  }
}

@keyframes jiggle {
  0%,
  100% {
    transform: scaleY(1);
  }
  50% {
    transform: scaleY(1.06);
  }
}

@keyframes blink {
  0%,
  88%,
  100% {
    transform: scaleY(0);
  }
  93%,
  96% {
    transform: scaleY(1);
  }
}

@keyframes squat {
  0%,
  100% {
    transform: scaleX(1);
    opacity: 0.22;
  }
  50% {
    transform: scaleX(0.92);
    opacity: 0.15;
  }
}

@keyframes chain-fwd {
  to {
    stroke-dashoffset: -24;
  }
}

@keyframes chain-back {
  to {
    stroke-dashoffset: 24;
  }
}

@keyframes knee-near {
  0% { cx: 451.7px; cy: 358px; }
  8.333% { cx: 441.5px; cy: 374.4px; }
  16.667% { cx: 426.4px; cy: 386.6px; }
  25% { cx: 419.1px; cy: 390px; }
  33.333% { cx: 422px; cy: 388.8px; }
  41.667% { cx: 426.7px; cy: 386.4px; }
  50% { cx: 433px; cy: 382.2px; }
  58.333% { cx: 441.7px; cy: 374.2px; }
  66.667% { cx: 451.4px; cy: 358.5px; }
  75% { cx: 455.9px; cy: 339.6px; }
  83.333% { cx: 456px; cy: 334.1px; }
  91.667% { cx: 455.6px; cy: 342.6px; }
  100% { cx: 451.7px; cy: 358px; }
}

@keyframes thigh-near {
  0% { x2: 451.7px; y2: 358px; }
  8.333% { x2: 441.5px; y2: 374.4px; }
  16.667% { x2: 426.4px; y2: 386.6px; }
  25% { x2: 419.1px; y2: 390px; }
  33.333% { x2: 422px; y2: 388.8px; }
  41.667% { x2: 426.7px; y2: 386.4px; }
  50% { x2: 433px; y2: 382.2px; }
  58.333% { x2: 441.7px; y2: 374.2px; }
  66.667% { x2: 451.4px; y2: 358.5px; }
  75% { x2: 455.9px; y2: 339.6px; }
  83.333% { x2: 456px; y2: 334.1px; }
  91.667% { x2: 455.6px; y2: 342.6px; }
  100% { x2: 451.7px; y2: 358px; }
}

@keyframes shin-near {
  0% { x1: 451.7px; y1: 358px; x2: 452px; y2: 412px; }
  8.333% { x1: 441.5px; y1: 374.4px; x2: 447.7px; y2: 428px; }
  16.667% { x1: 426.4px; y1: 386.6px; x2: 436px; y2: 439.7px; }
  25% { x1: 419.1px; y1: 390px; x2: 420px; y2: 444px; }
  33.333% { x1: 422px; y1: 388.8px; x2: 404px; y2: 439.7px; }
  41.667% { x1: 426.7px; y1: 386.4px; x2: 392.3px; y2: 428px; }
  50% { x1: 433px; y1: 382.2px; x2: 388px; y2: 412px; }
  58.333% { x1: 441.7px; y1: 374.2px; x2: 392.3px; y2: 396px; }
  66.667% { x1: 451.4px; y1: 358.5px; x2: 404px; y2: 384.3px; }
  75% { x1: 455.9px; y1: 339.6px; x2: 420px; y2: 380px; }
  83.333% { x1: 456px; y1: 334.1px; x2: 436px; y2: 384.3px; }
  91.667% { x1: 455.6px; y1: 342.6px; x2: 447.7px; y2: 396px; }
  100% { x1: 451.7px; y1: 358px; x2: 452px; y2: 412px; }
}

@keyframes knee-far {
  0% { cx: 430.2px; cy: 378.3px; }
  8.333% { cx: 436.7px; cy: 365.3px; }
  16.667% { cx: 440px; cy: 344px; }
  25% { cx: 437.4px; cy: 328.9px; }
  33.333% { cx: 437.8px; cy: 330.3px; }
  41.667% { cx: 439.9px; cy: 342.6px; }
  50% { cx: 438.3px; cy: 359.8px; }
  58.333% { cx: 431.3px; cy: 376.5px; }
  66.667% { cx: 422.6px; cy: 387.4px; }
  75% { cx: 419.8px; cy: 390px; }
  83.333% { cx: 421.4px; cy: 388.6px; }
  91.667% { cx: 424.9px; cy: 385px; }
  100% { cx: 430.2px; cy: 378.3px; }
}

@keyframes thigh-far {
  0% { x2: 430.2px; y2: 378.3px; }
  8.333% { x2: 436.7px; y2: 365.3px; }
  16.667% { x2: 440px; y2: 344px; }
  25% { x2: 437.4px; y2: 328.9px; }
  33.333% { x2: 437.8px; y2: 330.3px; }
  41.667% { x2: 439.9px; y2: 342.6px; }
  50% { x2: 438.3px; y2: 359.8px; }
  58.333% { x2: 431.3px; y2: 376.5px; }
  66.667% { x2: 422.6px; y2: 387.4px; }
  75% { x2: 419.8px; y2: 390px; }
  83.333% { x2: 421.4px; y2: 388.6px; }
  91.667% { x2: 424.9px; y2: 385px; }
  100% { x2: 430.2px; y2: 378.3px; }
}

@keyframes shin-far {
  0% { x1: 430.2px; y1: 378.3px; x2: 388px; y2: 412px; }
  8.333% { x1: 436.7px; y1: 365.3px; x2: 392.3px; y2: 396px; }
  16.667% { x1: 440px; y1: 344px; x2: 404px; y2: 384.3px; }
  25% { x1: 437.4px; y1: 328.9px; x2: 420px; y2: 380px; }
  33.333% { x1: 437.8px; y1: 330.3px; x2: 436px; y2: 384.3px; }
  41.667% { x1: 439.9px; y1: 342.6px; x2: 447.7px; y2: 396px; }
  50% { x1: 438.3px; y1: 359.8px; x2: 452px; y2: 412px; }
  58.333% { x1: 431.3px; y1: 376.5px; x2: 447.7px; y2: 428px; }
  66.667% { x1: 422.6px; y1: 387.4px; x2: 436px; y2: 439.7px; }
  75% { x1: 419.8px; y1: 390px; x2: 420px; y2: 444px; }
  83.333% { x1: 421.4px; y1: 388.6px; x2: 404px; y2: 439.7px; }
  91.667% { x1: 424.9px; y1: 385px; x2: 392.3px; y2: 428px; }
  100% { x1: 430.2px; y1: 378.3px; x2: 388px; y2: 412px; }
}

  ]]></style>
          <title id="scene-title">자전거를 타는 펠리컨</title>
          <desc id="scene-desc">
            갈색 펠리컨이 붉은 자전거 안장에 앉아 물갈퀴로 페달을 밟습니다. 긴 부리와
            주머니가 앞바퀴보다 멀리 나가고, 바퀴와 크랭크가 돌며 해안 도로가 뒤로
            흘러갑니다.
          </desc>

          <defs>
            <linearGradient id="sky" x1="0" y1="0" x2="0" y2="1">
              <stop offset="0%" stop-color="#7EBFDC" />
              <stop offset="48%" stop-color="#F6C9A2" />
              <stop offset="100%" stop-color="#F8D7B0" />
            </linearGradient>
            <linearGradient id="sea" x1="0" y1="0" x2="0" y2="1">
              <stop offset="0%" stop-color="#3E96B4" />
              <stop offset="100%" stop-color="#2A718F" />
            </linearGradient>
            <radialGradient id="sun-glow" cx="50%" cy="50%" r="50%">
              <stop offset="0%" stop-color="#FFE9A8" />
              <stop offset="42%" stop-color="#FFD56A" stop-opacity="0.9" />
              <stop offset="100%" stop-color="#FFD56A" stop-opacity="0" />
            </radialGradient>
            <linearGradient id="beak" x1="0" y1="0" x2="1" y2="0">
              <stop offset="0%" stop-color="#F6C453" />
              <stop offset="100%" stop-color="#E3942C" />
            </linearGradient>
            <linearGradient id="pouch-fill" x1="0" y1="0" x2="0" y2="1">
              <stop offset="0%" stop-color="#F2A184" />
              <stop offset="100%" stop-color="#D4654E" />
            </linearGradient>
            <filter id="shadow-blur" x="-40%" y="-80%" width="180%" height="280%">
              <feGaussianBlur stdDeviation="5" />
            </filter>

            <g id="wheel">
              <circle r="66" fill="none" stroke="#2B3036" stroke-width="12" />
              <circle r="66" fill="none" stroke="#F4E7CC" stroke-width="2" />
              <circle r="57" fill="none" stroke="#D7DEE4" stroke-width="3.5" />
              <g stroke="#B7C1C8" stroke-width="2.2" stroke-linecap="round">
                <line y1="-54" y2="54" />
                <line x1="-54" x2="54" />
                <line x1="-38.2" y1="-38.2" x2="38.2" y2="38.2" />
                <line x1="38.2" y1="-38.2" x2="-38.2" y2="38.2" />
              </g>
              <circle r="11" fill="none" stroke="#2C3136" stroke-width="4" stroke-dasharray="3.2 2.4" />
              <circle r="8" fill="#3A424A" />
              <circle r="3.2" fill="#E4EAEF" />
              <circle cx="47" cy="-24" r="4.5" fill="#E23B3B" />
            </g>

            <g id="ground-tile">
              <g fill="#E7D7B0">
                <rect x="16" y="516" width="38" height="6" rx="3" />
                <rect x="116" y="516" width="38" height="6" rx="3" />
                <rect x="216" y="516" width="38" height="6" rx="3" />
                <rect x="316" y="516" width="38" height="6" rx="3" />
              </g>
              <g fill="none" stroke="#7C914C" stroke-width="2" stroke-linecap="round">
                <path d="M70 476c-2-10-4-18 2-26" />
                <path d="M76 476c2-12 8-20 4-28" />
                <path d="M64 476c-6-10-8-18-4-26" />
                <path d="M250 470c-2-9-3-16 2-24" />
                <path d="M256 470c2-11 7-18 3-26" />
                <path d="M244 470c-6-9-7-16-3-24" />
                <path d="M40 600c-2-11-4-18 2-28" />
                <path d="M48 600c3-12 9-20 4-30" />
                <path d="M32 600c-7-10-8-20-3-28" />
                <path d="M300 608c-2-10-3-16 2-24" />
                <path d="M308 608c2-12 8-18 3-26" />
                <path d="M292 608c-6-9-8-18-3-24" />
              </g>
              <path
                fill="#F4E6C8"
                d="M168 452c6-8 16-6 14 2-4 6-12 6-14-2z"
              />
              <ellipse cx="188" cy="626" rx="7" ry="4" fill="#D7B888" />
              <ellipse cx="360" cy="592" rx="5" ry="3" fill="#C9A878" />
            </g>
          </defs>

          <rect width="1040" height="680" fill="url(#sky)" />
          <circle cx="900" cy="86" r="86" fill="url(#sun-glow)" />
          <circle cx="900" cy="86" r="34" fill="#FFE08A" />

          <g class="clouds" fill="#fff" opacity="0.9">
            <g>
              <ellipse cx="150" cy="108" rx="48" ry="18" />
              <ellipse cx="184" cy="98" rx="32" ry="22" />
              <ellipse cx="118" cy="102" rx="26" ry="16" />
            </g>
            <g>
              <ellipse cx="520" cy="74" rx="56" ry="18" />
              <ellipse cx="558" cy="64" rx="30" ry="20" />
              <ellipse cx="488" cy="68" rx="24" ry="14" />
            </g>
            <g opacity="0.8">
              <ellipse cx="790" cy="132" rx="36" ry="13" />
              <ellipse cx="816" cy="124" rx="20" ry="14" />
            </g>
          </g>

          <g class="birds" fill="none" stroke="#5C6B78" stroke-width="2" stroke-linecap="round">
            <path d="M186 168q12-12 24 0 12-12 24 0" />
            <path d="M250 142q9-9 18 0 9-9 18 0" />
          </g>

          <rect x="0" y="308" width="1040" height="62" fill="url(#sea)" />
          <path d="M0 356c70-22 120-8 190 0s130 16 200 0 140-18 210 0 130 20 210 0 120-16 230 4v18H0z" fill="#7FA990" opacity="0.35" />
          <path d="M0 368c80-26 150 4 230 8 90 4 120-30 210-22 80 8 130 8 210-6 90-16 150 4 230 8 50 2 100-8 160-4v28H0z" fill="#E7C98A" />
          <path d="M620 348c70-24 150-10 220 2 40 6 90 4 140-6 20-4 40-2 60 2v28c-40 8-90 2-140 8-80 10-150-6-220-4-60 2-90 10-140 4-20-2-28-8-40-12 30-8 70-16 120-22z" fill="#6E947C" />

          <g class="waves" fill="none" stroke="#EAF7FB" stroke-linecap="round">
            <path stroke-width="2.4" d="M-20 330q40-12 80 0t80 0 80 0 80 0 80 0 80 0 80 0 80 0 80 0 80 0 80 0 80 0" />
            <path stroke-width="2" opacity="0.65" d="M-20 346q50-10 100 0t100 0 100 0 100 0 100 0 100 0 100 0 100 0 100 0" />
          </g>
          <g fill="#F6E2A8" opacity="0.45">
            <ellipse cx="900" cy="332" rx="5" ry="12" />
            <ellipse cx="900" cy="352" rx="3.5" ry="8" />
          </g>

          <rect x="0" y="488" width="1040" height="78" fill="#5C666E" />
          <rect x="0" y="488" width="1040" height="7" fill="#6E7872" />

          <g class="ground-scroll">
            <use href="#ground-tile" x="-400" />
            <use href="#ground-tile" x="0" />
            <use href="#ground-tile" x="400" />
            <use href="#ground-tile" x="800" />
            <use href="#ground-tile" x="1200" />
          </g>

          <ellipse class="bike-shadow" cx="470" cy="508" rx="176" ry="12" fill="#1A2428" opacity="0.22" filter="url(#shadow-blur)" />

          <g>
            <animateTransform attributeName="transform" type="rotate" from="0 300 428" to="360 300 428" dur="1s" repeatCount="indefinite" />
            <use href="#wheel" x="300" y="428" />
          </g>
          <g>
            <animateTransform attributeName="transform" type="rotate" from="0 620 428" to="360 620 428" dur="1s" repeatCount="indefinite" />
            <use href="#wheel" x="620" y="428" />
          </g>

          <g fill="none" stroke="#F7F1E6" stroke-width="7" stroke-linecap="round">
            <path d="M239 377a80 80 0 0 0 122 0" />
            <path d="M559 377a80 80 0 0 0 122 0" />
          </g>

          <g class="legs-far" fill="#C4844C" stroke="#C4844C" stroke-linecap="round">
            <line class="thigh-far" x1="382" y1="346" x2="430.2" y2="378.3" />
            <line class="shin-far" x1="430.2" y1="378.3" x2="388" y2="412" />
            <circle class="knee-far" cx="430.2" cy="378.3" r="6.5" />
          </g>

          <g>
            <animateTransform attributeName="transform" type="rotate" from="0 420 412" to="360 420 412" dur="1.2s" repeatCount="indefinite" />
            <line x1="420" y1="412" x2="388" y2="412" stroke="#C5CDD4" stroke-width="6" stroke-linecap="round" />
            <g>
              <animateTransform attributeName="transform" type="rotate" from="0 388 412" to="-360 388 412" dur="1.2s" repeatCount="indefinite" />
              <rect x="378" y="415" width="20" height="6" rx="1.5" fill="#3A424A" />
              <rect x="386" y="412" width="5" height="11" rx="1" fill="#8B949E" />
              <path fill="#D4894A" d="M382 412c4-8 20-12 38-8 10 2 12 8 4 10l-18 2c-14 2-24-1-24-4z" />
              <path fill="#C47830" d="M404 404l18-3-2 6zM410 406l16 0-4 5z" />
            </g>
          </g>

          <g fill="none" stroke="#2C3136" stroke-width="4" stroke-linecap="round">
            <path class="chain-top" d="M406 396 L308 420" />
            <path class="chain-bot" d="M414 428 L304 436" />
          </g>

          <g fill="none" stroke="#B3362A" stroke-width="10" stroke-linecap="round" stroke-linejoin="round" transform="translate(1.2 2)">
            <path d="M420 412 L300 428" />
            <path d="M392 332 L300 428" />
            <path d="M420 412 L392 332" />
            <path d="M420 412 L550 346" />
            <path d="M392 332 L536 300" />
            <path d="M536 300 L554 348" />
            <path d="M554 348 L620 428" />
          </g>
          <g fill="none" stroke="#E1533F" stroke-width="8" stroke-linecap="round" stroke-linejoin="round">
            <path d="M420 412 L300 428" />
            <path d="M392 332 L300 428" />
            <path d="M420 412 L392 332" />
            <path d="M420 412 L550 346" />
            <path d="M392 332 L536 300" />
            <path d="M536 300 L554 348" />
            <path d="M554 348 L620 428" />
          </g>

          <g>
            <animateTransform attributeName="transform" type="rotate" from="0 420 412" to="360 420 412" dur="1.2s" repeatCount="indefinite" />
            <circle cx="420" cy="412" r="16" fill="#2A2F34" />
            <circle cx="420" cy="412" r="16" fill="none" stroke="#E7E2D6" stroke-width="3" stroke-dasharray="4 3.5" />
            <circle cx="420" cy="412" r="5" fill="#C5CDD4" />
          </g>

          <path fill="#F3E4C8" d="M292 350c28-22 78-32 128-16-18 14-70 24-124 16-4-2-4 0-4 0z" />
          <path fill="none" stroke="#D7C2A2" stroke-width="1.5" d="M318 344c36-12 70-10 96 2" />

          <g transform="translate(478 376) rotate(-27)">
            <rect x="-8" y="-20" width="16" height="32" rx="4" fill="#6EB4A6" />
            <rect x="-6" y="-25" width="12" height="7" rx="2" fill="#F4E4C8" />
          </g>

          <g class="upper">
            <g class="tail">
              <path fill="#6A5F56" d="M318 292c-38-14-82-8-112-22 34 22 74 26 112 30z" />
              <path fill="#5C534C" d="M322 308c-52 0-102 14-134 4 48 16 98 12 136 6z" />
              <path fill="#7A6E64" d="M324 322c-44 14-92 28-126 18 52 12 98 2 128-8z" />
            </g>
            <path fill="#8A7B6E" d="M250 308c24-46 84-76 152-82 60-6 114 12 128 44 12 28-2 62-40 78-34 14-82 10-114-6-28 12-72 6-106-14-18-10-28-14-20-20z" />
            <path fill="#F6EBDA" d="M390 270c60-12 118 10 122 44 2 26-26 42-68 38-40-4-72-24-66-52 2-16 6-24 12-30z" />

            <path fill="#C4844A" d="M492 254c26-38 56-70 94-88l16 18c-40 16-68 50-88 88z" />
            <path fill="#FFF8EF" d="M508 272c20-38 44-70 82-92l18 16c-42 22-64 56-80 92z" />

            <g class="head">
              <ellipse cx="612" cy="172" rx="38" ry="32" fill="#FFF8EF" />
              <ellipse cx="598" cy="156" rx="22" ry="11" fill="#F8E2A8" />
              <g fill="none" stroke="#C4844A" stroke-width="3.2" stroke-linecap="round">
                <path d="M584 150c-16-14-30-8-24 6" />
                <path d="M592 142c-16-18-34-10-28 6" />
              </g>
              <path fill="url(#beak)" d="M642 160c88-14 168-8 246 8 12 4 10 14-4 14-74-8-154-4-244 4z" />
              <path fill="#D4882A" d="M872 166c24 2 34 12 16 22-10-6-14-14-16-22z" />
              <ellipse cx="684" cy="164" rx="8" ry="2.4" fill="#C9842E" />
              <g class="eye">
                <ellipse cx="626" cy="166" rx="9" ry="9" fill="#F4F0E6" />
                <circle cx="628.2" cy="166.2" r="4.3" fill="#1C1916" />
                <circle cx="629.8" cy="164.6" r="1.5" fill="#fff" />
                <ellipse class="lid" cx="626" cy="166" rx="10.2" ry="10.2" fill="#FFF8EF" />
              </g>
              <g class="pouch">
                <path fill="url(#pouch-fill)" d="M644 176c56 12 116 52 186 46 40-4 62-26 54-42-64 20-154 16-240-4z" />
                <path fill="none" stroke="#C45A48" stroke-width="1.5" d="M676 188c60 18 120 20 176 4" />
                <path fill="none" stroke="#C45A48" stroke-width="1.3" d="M696 198c58 16 112 14 160 0" />
              </g>
              <path fill="none" stroke="#7A4328" stroke-width="1.7" d="M646 174c114-8 204-4 242 4" />
            </g>

            <g class="wing">
              <path fill="#4A433E" d="M368 252c-22-28-62-40-86-22-8 8 8 16 28 20 22 6 42 8 58 2z" />
              <path fill="#5C554E" d="M408 248c-24-40-78-52-104-28-6 8 10 18 34 22 28 6 52 10 70 6z" />
              <path fill="#6E655C" d="M448 250c-28-46-90-58-118-30-6 10 12 20 40 24 32 6 58 12 78 6z" />
              <path fill="#82786E" d="M392 246c-18-22-40-24-48-12 10 4 28 8 48 12z" />
              <g fill="none" stroke="#3A342F" stroke-width="1.5" stroke-linecap="round" opacity="0.85">
                <path d="M400 232c-16-8-30-6-40 2" />
                <path d="M428 226c-18-12-38-10-50 2" />
                <path d="M360 236c-14-6-26-4-34 4" />
              </g>
            </g>
          </g>

          <g fill="none" stroke="#B3362A" stroke-width="7" stroke-linecap="round" transform="translate(1.2 1.6)">
            <path d="M536 304c22-16 46-22 62-16" />
            <path d="M590 286c48-28 104-22 140 14" />
          </g>
          <g fill="none" stroke="#E1533F" stroke-width="7" stroke-linecap="round">
            <path d="M536 304c22-16 46-22 62-16" />
            <path d="M590 286c48-28 104-22 140 14" />
          </g>
          <rect x="712" y="292" width="24" height="11" rx="4" fill="#6B432E" transform="rotate(22 724 297)" />
          <circle cx="668" cy="268" r="7" fill="#F6E7C4" />
          <circle cx="668" cy="268" r="2.7" fill="#C9B48A" />
          <path d="M668 275v8" stroke="#E1533F" stroke-width="2.4" stroke-linecap="round" />

          <ellipse cx="400" cy="344" rx="24" ry="15" fill="#8A7B6E" />

          <g class="legs-near" fill="#E9923A" stroke="#E9923A" stroke-linecap="round">
            <line class="thigh-near" x1="398" y1="336" x2="451.7" y2="358" />
            <line class="shin-near" x1="451.7" y1="358" x2="452" y2="412" />
            <circle class="knee-near" cx="451.7" cy="358" r="8" />
          </g>

          <g>
            <animateTransform attributeName="transform" type="rotate" from="0 420 412" to="360 420 412" dur="1.2s" repeatCount="indefinite" />
            <line x1="420" y1="412" x2="452" y2="412" stroke="#E7EEF2" stroke-width="6" stroke-linecap="round" />
            <g>
              <animateTransform attributeName="transform" type="rotate" from="0 452 412" to="-360 452 412" dur="1.2s" repeatCount="indefinite" />
              <rect x="442" y="415" width="22" height="6" rx="1.5" fill="#343C44" />
              <rect x="450" y="412" width="5" height="12" rx="1" fill="#8B949E" />
              <path fill="#F4A24A" d="M446 412c4-8 20-12 38-8 10 2 12 8 4 10l-18 2c-14 2-24-1-24-4z" />
              <path fill="#E08A32" d="M468 404l18-3-2 6zM474 406l16 0-4 5z" />
            </g>
          </g>
        </svg>